Conan the Barbarian (2011) DVDRip XviD-MAXSPEED

Format                           : AVI
Format/Info                      : Audio Video Interleave
Format profile                   : OpenDML
File size                        : 1.42 GiB
Duration                         : 1h 52mn
Overall bit rate                 : 1 799 Kbps
Writing application              : VirtualDubMod 1.5.10.2 (build 2542/release)
Writing library                  : VirtualDubMod build 2542/release
Original source form             : MAX TORRENTZ
Copyright                        : SIGISMUNT

Video
ID                               : 0
Format                           : MPEG-4 Visual
Format profile                   : AdvancedSimple@L5
Format settings, BVOP            : Yes
Format settings, QPel            : No
Format settings, GMC             : No warppoints
Format settings, Matrix          : Custom
Codec ID                         : XVID
Codec ID/Hint                    : XviD
Duration                         : 1h 52mn
Bit rate                         : 1 603 Kbps
Width                            : 720 pixels
Height                           : 304 pixels
Display aspect ratio             : 2.35:1
Frame rate                       : 23.976 fps
Resolution                       : 24 bits
Colorimetry                      : 4:2:0
Scan type                        : Progressive
Bits/(Pixel*Frame)               : 0.305
Stream size                      : 1.26 GiB (89%)
Writing library                  : XviD 58

Audio
ID                               : 1
Format                           : MPEG Audio
Format version                   : Version 1
Format profile                   : Layer 3
Codec ID                         : 50
Codec ID/Hint                    : MP1
Duration                         : 1h 52mn
Bit rate mode                    : Constant
Bit rate                         : 192 Kbps
Channel(s)                       : 2 channels
Sampling rate                    : 48.0 KHz
Resolution                       : 16 bits
Stream size                      : 155 MiB (11%)
Alignment                        : Aligned on interleaves
Interleave, duration             : 493 ms (11.82 video frames)
Interleave, preload duration     : 216 ms

Source: DVD (perfect a/v/sync quality,sample included)
This torrent is not seedbox supported,please seed it to the MAX
 
NOTE

BE AWARE OF BOGUS SITES , FAKE FILES  AND 
STUPID SPAMMERS DOWNLOAD ALWAYS YOUR MAX DATA FROM OUR SITE 
http://www.torentz.3xforum.ro/topic/4/MAX_TORRENTZ/

Recommended player for all our movies
http://www.videolan.org/vlc/

REMEMBER: GOD DEMANDS LOVE,SEEDS,PEERS AND A FAIR TORRENT RATIO

Copyright © WWW.TORENTZ.3XFORUM.RO